<svg id="Layer_1" xmlns="http://www.w3.org/2000/svg" viewBox="0 0 59 51.5">
	<style>
		.st0,.st1{fill:none;stroke:#bcc0c4;stroke-width:2;stroke-miterlimit:10}.st1{stroke:#bc9f62}
	</style>
	<path fill="#ffecc7" d="M19 31h15v3l11-8-11-8v3H19"/>
	<path class="st1" d="M17 31h17v3l11-8-11-8v3H19M29 26h2M25 26h2M25 16h2M25 36h2"/>
	<path class="st0" d="M33 50.5c-6.4 0-12.2-2.4-16.6-6.3M37.6 1C49.2 3.1 58 13.3 58 25.5M56.7 34.7c-2.1 5.4-6 10-11 12.9"/>
	<path class="st0" d="M18.4 11.2c3.7-3.4 8.5-5.4 13.9-5.4 11.3 0 20.5 9.2 20.5 20.5 0 8.8-5.6 16.3-13.4 19.2"/>
	<path class="st1" d="M17 21h-2M0 15h5l6 6h2M0 26h23M0 37h4l6-6h7M23 36h-8L5 46H0M23 16h-8L7 8H0"/>
</svg>