<svg id="Layer_1" xmlns="http://www.w3.org/2000/svg" viewBox="0 0 58 54.4">
	<style>
		.st0{fill:none;stroke:#bcc0c4;stroke-width:2;stroke-miterlimit:10}
	</style>
	<path d="M29 6h14.1c.6 4 3.9 6.6 7.9 7.2v20.2c0 10.8-19.2 20.1-22 20.1-2.8 0-22-9.3-22-20.1V13.2c4-.6 7.3-3.2 7.9-7.2H29z" fill="#fff" stroke="#bc9f62" stroke-width="2" stroke-miterlimit="10"/>
	<path class="st0" d="M57 24v9.3c0 6.8-4.4 13.3-12.8 19.2M36 1h8M14 1h8M13.8 52.6C5.4 46.7 1 40.1 1 33.3V24"/>
	<path d="M42.7 28.4c0 8.1-6.5 14.6-14.6 14.6s-14.6-6.5-14.6-14.6S20 13.8 28.1 13.8c1.8 0 3.6.3 5.2 1" fill="none" stroke="#bc9f62" stroke-width="2" stroke-miterlimit="10"/>
	<path fill="#ffecc7" stroke="#bc9f62" stroke-width="2" stroke-miterlimit="10" d="M42.2 13.9L29 27l-5.5-5.4-4.4 4.4 9.9 9.8 17.6-17.5z"/>
	<path class="st0" d="M57 12v2M57 16v2M57 20v2M1 12v2M1 16v2M1 20v2M28 1h2M24 1h2M32 1h2"/>
</svg>