<svg xmlns="http://www.w3.org/2000/svg" id="Layer_1" viewBox="0 0 54 62.3">
	<style>
		.st0,.st1{fill:none;stroke:#bcc0c4;stroke-width:2;stroke-miterlimit:10}.st1{stroke:#bc9f62}.st3{fill:#fff}
	</style>
	<circle cx="27" cy="29.4" r="24" fill="#e9eaeb"/>
	<path d="M11 21.3h42v32H11z" class="st3"/>
	<path d="M1 30.3h28v31H1z" class="st3"/>
	<path d="M29 56.3v5H1v-31h7" class="st1"/>
	<path d="M11 53.3v2l17 5h1v-4" class="st1"/>
	<path d="M48.2 53.5L38 43.3H24l-5-5 4-4 2 2h15l13 13" class="st0"/>
	<path d="M12 38.3l10 10h14l5 5M12 23.3l7 7-4 4-3-3M53 42.3l-11-11H27l-10-10M43 21.3l10 10" class="st0"/>
	<path d="M11 21.3h42v32H11z" class="st1"/>
	<path fill="#ffecc7" stroke="#bc9f62" stroke-miterlimit="10" stroke-width="2" d="M37.8 1c-7.4 0-13.3 6-13.3 13.3 0 11.5 11.4 13.1 12.3 24.7 0 .5.5 1 1 1s1-.4 1-1c1-11.7 12.3-13.2 12.3-24.7C51.1 7 45.2 1 37.8 1z"/>
	<circle cx="37.8" cy="14.3" r="4.3" fill="#fff" stroke="#bc9f62" stroke-miterlimit="10" stroke-width="2"/>
</svg>