<svg xmlns="http://www.w3.org/2000/svg" id="Layer_1" viewBox="0 0 59 58.7">
	<style>
		.st0{fill:none;stroke:#bcc0c4;stroke-width:2;stroke-miterlimit:10}
	</style>
	<circle cx="29.9" cy="29.9" r="14" fill="#e9eaeb"/>
	<path fill="#ffecc7" stroke="#bc9f62" stroke-miterlimit="10" stroke-width="2" d="M44 39c-2.5-2.2-6.8-3.8-10.1-3.8-1 .7-2.9 2.8-3.7 3.8-1.9-.6-3.9-2.7-5.7-4.9-1.8-2.2-3.4-4.6-3.7-6.5 1.1-.5 3.6-2 4.5-2.8.7-3.2-.1-7.7-1.8-10.6-2-.3-6.7-.2-10.1 1.3-1.4 4.2-1.9 13.6 6 23.5 8.2 9.6 17.6 9.6 22 9 2.2-3.1 2.5-7 2.6-9z"/>
	<path d="M10.2 8.6c11.6-10.7 29.6-9.9 40.3 1.6.5.5.9 1 1.3 1.5M2.9 19.1c-3.8 9.8-2 21.4 5.6 29.7 3.5 3.8 7.8 6.4 12.5 7.9M33.8 57.7c5.4-.8 10.7-3.2 15-7.2 7.8-7.2 10.6-17.6 8.5-27.2" class="st0"/>
	<path d="M30.7 6.2c12.8.5 22.8 11.3 22.2 24.1 0 .5-.1 1.1-.1 1.6" class="st0"/>
</svg>