<svg xmlns="http://www.w3.org/2000/svg" id="Layer_1" viewBox="0 0 32.4 28.4">
	<style>
		.st10{stroke-width:.5;stroke-miterlimit:10}
	</style>
	<path d="M30.1 4.2H6.2c-1.1 0-2 .9-2 2v19.9c0 1.1.9 2 2 2h23.9c1.1 0 2-.9 2-2V6.2c0-1.1-.9-2-2-2zm0 22.6H6.2c-.4 0-.7-.3-.7-.7v-1.7l9.3-9.3L25 25.3l.9-.9-10.6-10.7c-.3-.3-.7-.3-.9 0l-8.8 8.8V6.2c0-.4.3-.7.7-.7h23.9c.4 0 .7.3.7.7v13.7l-6.2-6.2c-.3-.3-.7-.3-.9 0L20.4 17l.9.9 2.8-2.8 6.6 6.6v4.4c.1.4-.2.7-.6.7z" class="st10"/>
	<path d="M1.6 23.5V2.2c0-.4.3-.7.7-.7h25.2c.4 0 .7.3.7.7v.7h1.3v-.7c0-1.1-.9-2-2-2H2.2c-1.1 0-2 .9-2 2v21.2c0 1.1.9 2 2 2h.7v-1.3h-.7c-.3 0-.6-.3-.6-.6z" class="st10"/>
	<path d="M22.8 10.2c0-1.8-1.5-3.3-3.3-3.3-1.8 0-3.3 1.5-3.3 3.3 0 1.8 1.5 3.3 3.3 3.3 1.8 0 3.3-1.5 3.3-3.3zm-3.3 2c-1.1 0-2-.9-2-2s.9-2 2-2 2 .9 2 2-.9 2-2 2z" class="st10"/>
</svg>