<svg xmlns="http://www.w3.org/2000/svg" id="Layer_1" viewBox="0 0 61 61">
	<style>
		.st1{fill:none;stroke:#bc9f62;stroke-width:2;stroke-miterlimit:10}
	</style>
	<circle cx="30.5" cy="30.5" r="30.5" fill="#e9eaeb"/>
	<path fill="#e9eaeb" stroke="#bc9f62" stroke-miterlimit="10" stroke-width="2" d="M54 45V26.3c0-1.1-.6-2.3-1.5-3L33.9 6.5c-2.2-2-5.6-2-7.8 0L7.5 23.3c-.9.7-1.5 1.8-1.5 3V45h48z"/>
	<path fill="#fff" stroke="#bc9f62" stroke-miterlimit="10" stroke-width="2" d="M13 12h34v32H13z"/>
	<path fill="#ffecc7" stroke="#bc9f62" stroke-miterlimit="10" stroke-width="2" d="M53 28c-2.2 1.8-14.2 11.7-15.4 12.4-1.4.8-4.3 1.6-7.6 1.6s-6.2-.8-7.6-1.6C21.2 39.7 9.2 29.8 7 28H6v24c0 1.7 1.3 3 3 3h42c1.7 0 3-1.3 3-3V28h-1z"/>
	<path d="M20.9 39.3L10 51M39 39.3L50 51M20 22h19M20 26h19M20 30h13" class="st1"/>
</svg>