<svg xmlns="http://www.w3.org/2000/svg" id="Layer_1" viewBox="0 0 55.7 60">
	<style>
		.st1{fill:none;stroke:#bc9f62;stroke-width:2;stroke-miterlimit:10}
	</style>
	<path fill="#fff" d="M30.2 9.6c-2 .3-4.5 1.7-6.3 3.4-3.3 3.3-4.5 8.1-3.4 12.3l-5.1 5.1v3.9l-.5.7H11l-1.6 1.9v3.9l-1 .2H4.6l-3.2 3.7L5.2 49h6.5l15.2-15.5c1.9 1 4 1.4 6.1 1.4 7.1 0 13.5-9 11.5-17-2.1-7.9-9.3-9.6-14.3-8.3z"/>
	<path d="M30.2 9.6c-2.3.5-4.5 1.7-6.3 3.4-3.3 3.3-4.5 8.1-3.4 12.3l-5.1 5.1v3.9l-.5.7H11l-1.6 1.9v3.9l-1 .2H4.6l-3.2 3.7L5.2 49h6.5l15.2-15.5c1.9 1 4 1.4 6.1 1.4M24.6 30.4L9.7 45.3" class="st1"/>
	<path fill="#ffecc7" stroke="#bc9f62" stroke-miterlimit="10" stroke-width="2" d="M35.4 59h5.7l4.3-5V32.5c6-1.6 9.3-6.5 9.3-12.2 0-7.1-5.6-12.8-12.7-12.8s-12.9 5.7-12.9 12.8c0 4.7 3.3 8.8 6.3 11.1V39l2 2v2l-2 2.9v1.7l2 2.4v2l-2 2v5z"/>
	<path d="M41.4 36v17M41.4 34v-2M21.4 12c0-6.1 4.9-11 11-11s11 4.9 11 11c0 1.6-.4 3.2-1 4.6" class="st1"/>
	<circle cx="42.4" cy="16" r="4" fill="#fff" stroke="#bc9f62" stroke-miterlimit="10" stroke-width="2"/>
</svg>