<svg id="Layer_1" xmlns="http://www.w3.org/2000/svg" viewBox="0 0 60 57">
	<style>
		.st1,.st2,.st6{fill:none;stroke:#bc9f62;stroke-width:2;stroke-miterlimit:10}.st2,.st6{fill:#ffecc7}.st6{fill:#e9eaeb;stroke-linejoin:round}
	</style>
	<path fill="#fff" d="M2 13h56v32H2z"/>
	<path class="st1" d="M49 56h2l4-2.5-4-2.5h-2"/>
	<path class="st2" d="M50 51H13v5h37"/>
	<path class="st1" d="M49 56v-5M12 51h-2c-1.1 0-2 .9-2 2v1c0 1.1.9 2 2 2h2"/>
	<path class="st6" d="M7 39c0-.7-1.3-1-2-1-2.2 0-4 1.8-4 4V12c0-2.2 1.8-4 4-4 .7 0 2 .2 2 1v30z"/>
	<path class="st1" d="M33 13H7M53 13h-5M59 42c0 2.2-1.8 4-4 4H5c-2.2 0-4-1.8-4-4"/>
	<path class="st6" d="M53 39c0-.7 1.3-1 2-1 2.2 0 4 1.8 4 4V12c0-2.2-1.8-4-4-4-.7 0-2 .2-2 1v30z"/>
	<path class="st2" d="M11 34.9V36h36V1h-1.1L11 34.9z"/>
	<path class="st1" d="M41 33v3M36 33v3M31 33v3M26 33v3M21 33v3"/>
	<path fill="#fff" stroke="#bc9f62" stroke-width="2" stroke-miterlimit="10" d="M40 15h1v14H27v-1z"/>
</svg>