<svg xmlns="http://www.w3.org/2000/svg" id="Layer_1" viewBox="0 0 60 55.7">
	<style>
		.st1{fill:none;stroke:#bc9f62;stroke-width:2;stroke-miterlimit:10}
	</style>
	<path d="M13 25.7H0M47 25.7h13M9 21.7l4 4-4 4M51 21.7l-4 4 4 4M17.9 13.6L8 3.7M11.9 13.7h6v-6M42.1 13.6L52 3.7M48.1 13.7h-6v-6M43.1 38.8l8.9 8.9M49 38.7h-6v6M16.9 38.8L8 47.7M11 38.7h6v6" class="st1"/>
	<path fill="#fff" stroke="#bc9f62" stroke-miterlimit="10" stroke-width="2" d="M30 12.4c2.7 0 5-2.2 5-4.9V5.9C35 3.2 32.7 1 30 1s-5 2.2-5 4.9v1.6c0 2.7 2.3 4.9 5 4.9z"/>
	<path fill="#ffecc7" d="M34 15.7h-8c-3.1 0-7 2.8-7 7v9c0 2.2 2.5 5 4.8 5h.2v19h12v-19c2.2-.2 5-2.8 5-5v-9c0-4.2-3.9-7-7-7z"/>
	<path d="M35.8 36.7c2.2 0 5.3-2.8 5.3-5v-9c0-4.2-3.9-7-7-7h-8c-3.1 0-7 2.8-7 7v9c0 2.2 2.5 5 4.8 5M36 55.7v-33M24 22.7v33M30 55.7v-19" class="st1"/>
</svg>