<svg xmlns="http://www.w3.org/2000/svg" id="Layer_1" viewBox="0 0 58 55.9">
	<style>
		.st1,.st5{fill:none;stroke:#bc9f62;stroke-width:2;stroke-miterlimit:10}.st5{fill:#fff}
	</style>
	<path fill="#fff" d="M46 19.9H12c-3.7 0-11 2-11 5.9v12.1c0 2.3 1.7 4 4 4h1v14h46v-14h1c2.3 0 4-1.7 4-4V25.8c0-3.9-7.3-5.9-11-5.9z"/>
	<path fill="#ffecc7" d="M29 15.9c-3.7 0-11 2-11 6V34c0 2.3 1.7 3.9 4 3.9h1v18h12v-18h1c2.3 0 4-1.6 4-3.9V21.9c0-3.9-7.3-6-11-6z"/>
	<path d="M36 38c2.3 0 4-1.7 4-4V21.9c0-4-7.3-6-11-6s-11 2-11 6V34c0 2.3 1.7 4 4 4" class="st1"/>
	<path d="M29 12.9c2.8 0 5-2.3 5-5.1V6.1C34 3.3 31.8 1 29 1s-5 2.3-5 5.1v1.7c0 2.8 2.2 5.1 5 5.1z" class="st5"/>
	<path d="M53 42c2.3 0 4-1.7 4-4V25.8c0-4-7.3-5.9-11-5.9h-4M52 55.9v-26" class="st1"/>
	<path d="M46 16.8c2.8 0 5-2.3 5-5.1V10c0-2.8-2.2-5.1-5-5.1s-5 2.3-5 5.1v1.7c0 2.8 2.2 5.1 5 5.1z" class="st5"/>
	<path d="M5 42c-2.3 0-4-1.7-4-4V25.8c0-4 7.3-5.9 11-5.9h4M6 55.9v-26" class="st1"/>
	<path d="M12 16.8c-2.8 0-5-2.3-5-5.1V10c0-2.8 2.2-5.1 5-5.1s5 2.3 5 5.1v1.7c0 2.8-2.2 5.1-5 5.1z" class="st5"/>
	<path d="M35 55.9v-30M23 25.9v30M29 36.9v19" class="st1"/>
</svg>