<svg id="Layer_1" xmlns="http://www.w3.org/2000/svg" viewBox="0 0 61 58.1">
	<style>
		.st0,.st1,.st2{fill:none;stroke:#bcc0c4;stroke-width:2;stroke-miterlimit:10}.st1,.st2{stroke:#bc9f62}.st2{fill:#ffecc7}
	</style>
	<path class="st0" d="M9.7 11.1C14.8 4.9 22.5 1 31.2 1 46.6 1 59 13.5 59 28.9c0 2.1-.2 4.2-.7 6.2M3.8 34.1c-.3-1.7-.5-3.4-.5-5.2 0-2 .2-3.9.6-5.8M12 49.1c-1.3-1.2-2.5-2.6-3.5-4M53 46.2c-1.2 1.5-2.5 2.9-4 4.1"/>
	<path class="st1" d="M27 40.1H6M44 29.1H32.2c-1.1 0-2.5-.6-3.1-1.5l-6.4-10.1c-.6-.9-1.9-1.5-3-1.5H5M17 53.1h12.3c1.1 0 2.5-.6 3.1-1.5l6.4-9.6c.6-.9 1.9-1 3-1H56M34 18.1h10M46 18.1h2M50 18.1h2M24 57.1h2M28 57.1h2M32 57.1h2M12 36.1h2M16 36.1h2M20 36.1h2M39 37.1h2M43 37.1h2M47 37.1h2M14 12.1h2M18 12.1h2M22 12.1h2"/>
	<circle class="st2" cx="17" cy="53.1" r="4"/>
	<circle class="st2" cx="43" cy="53.1" r="4"/>
	<circle class="st2" cx="56" cy="41.1" r="4"/>
	<circle class="st2" cx="28" cy="40.1" r="4"/>
	<circle class="st2" cx="18" cy="28.1" r="4"/>
	<circle class="st2" cx="44" cy="29.1" r="4"/>
	<circle class="st2" cx="33" cy="18.1" r="4"/>
	<circle class="st2" cx="5" cy="16.1" r="4"/>
	<circle class="st2" cx="5" cy="40.1" r="4"/>
</svg>